# xmcd
#
# Track frame offsets:
#	150
#	20115
#	36490
#	58516
#	76684
#	98792
#	117945
#	136175
#	154894
#	171842
#	197715
#	217287
#	233782
#	249991
#	267004
#	285568
#	304314
#	324267
#
# Disc length: 4566 seconds
#
# Revision: 1
# Processed by: cddbd v1.5.2PL0 Copyright (c) Steve Scherf et al.
# Submitted via: audiograbber 1.83.01
#
DISCID=fc11d412
DTITLE=Various Artist - Smooth [CD2]
DYEAR=2007
DGENRE=R&B
TTITLE0=Alicia Keys - You dont know my name
TTITLE1=Usher - You make me wanna
TTITLE2=Fabolous Feat. Tamia - Into you
TTITLE3=Warren G Feat. Natt Dog - Regulate
TTITLE4=Macy Gray - Do Something
TTITLE5=Zhane - Hey Mr DJ
TTITLE6=LL Cool J - Around the way girl
TTITLE7=Faith Evans - Mesmerized
TTITLE8=Erykah Badu - On and on
TTITLE9=Maxwell - Ascension
TTITLE10=Deborah Cox - Sentimental
TTITLE11=Jamelia - See it in a boys eyes
TTITLE12=Ms Dynamite - Dy-na-mi-tee
TTITLE13=Ashanti - Foolish
TTITLE14=Brandy - I wanna be down
TTITLE15=Keith Sweat - Twisted
TTITLE16=Angie Stone - Wish i didnt miss you
TTITLE17=N*E*R*D - Provider
EXTD=
EXTT0=
EXTT1=
EXTT2=
EXTT3=
EXTT4=
EXTT5=
EXTT6=
EXTT7=
EXTT8=
EXTT9=
EXTT10=
EXTT11=
EXTT12=
EXTT13=
EXTT14=
EXTT15=
EXTT16=
EXTT17=
PLAYORDER=
